<svg width="139" height="31" viewBox="0 0 139 31" fill="none" xmlns="http://www.w3.org/2000/svg">
<path d="M24.511 0.889998V30H18.894V17.577H5.692V30H0.034V0.889998H5.692V12.657H18.894V0.889998H24.511ZM39.6125 30.41C37.8631 30.41 36.2915 30.123 34.8975 29.549C33.5035 28.9477 32.3145 28.1277 31.3305 27.089C30.3738 26.0503 29.6358 24.8613 29.1165 23.522C28.5971 22.1827 28.3375 20.775 28.3375 19.299C28.3375 17.7957 28.5971 16.3743 29.1165 15.035C29.6358 13.6957 30.3738 12.5067 31.3305 11.468C32.3145 10.4293 33.5035 9.623 34.8975 9.049C36.2915 8.44766 37.8631 8.147 39.6125 8.147C41.3618 8.147 42.9198 8.44766 44.2865 9.049C45.6805 9.623 46.8695 10.4293 47.8535 11.468C48.8375 12.5067 49.5755 13.6957 50.0675 15.035C50.5868 16.3743 50.8465 17.7957 50.8465 19.299C50.8465 20.775 50.5868 22.1827 50.0675 23.522C49.5755 24.8613 48.8375 26.0503 47.8535 27.089C46.8968 28.1277 45.7215 28.9477 44.3275 29.549C42.9335 30.123 41.3618 30.41 39.6125 30.41ZM33.9955 19.299C33.9955 20.5563 34.2415 21.677 34.7335 22.661C35.2255 23.6177 35.8951 24.3693 36.7425 24.916C37.5898 25.4627 38.5465 25.736 39.6125 25.736C40.6511 25.736 41.5941 25.4627 42.4415 24.916C43.2888 24.342 43.9585 23.5767 44.4505 22.62C44.9698 21.636 45.2295 20.5153 45.2295 19.258C45.2295 18.028 44.9698 16.921 44.4505 15.937C43.9585 14.953 43.2888 14.1877 42.4415 13.641C41.5941 13.0943 40.6511 12.821 39.6125 12.821C38.5465 12.821 37.5898 13.108 36.7425 13.682C35.8951 14.2287 35.2255 14.994 34.7335 15.978C34.2415 16.9347 33.9955 18.0417 33.9955 19.299ZM67.1084 28.893C66.6437 29.0843 66.0834 29.303 65.4274 29.549C64.7714 29.795 64.0607 29.9863 63.2954 30.123C62.5574 30.287 61.8057 30.369 61.0404 30.369C60.0291 30.369 59.0997 30.1913 58.2524 29.836C57.4051 29.4807 56.7217 28.9203 56.2024 28.155C55.7104 27.3623 55.4644 26.3373 55.4644 25.08V12.739H52.6354V8.516H55.4644V1.546H60.9584V8.516H65.4684V12.739H60.9584V23.235C60.9857 23.973 61.1907 24.506 61.5734 24.834C61.9561 25.162 62.4344 25.326 63.0084 25.326C63.5824 25.326 64.1427 25.2303 64.6894 25.039C65.2361 24.8477 65.6734 24.6837 66.0014 24.547L67.1084 28.893ZM79.6925 30.41C77.9705 30.41 76.4125 30.123 75.0185 29.549C73.6245 28.9477 72.4355 28.1413 71.4515 27.13C70.4675 26.0913 69.7022 24.916 69.1555 23.604C68.6362 22.2647 68.3765 20.857 68.3765 19.381C68.3765 17.331 68.8275 15.4587 69.7295 13.764C70.6588 12.0693 71.9708 10.7163 73.6655 9.705C75.3875 8.66633 77.4102 8.147 79.7335 8.147C82.0842 8.147 84.0932 8.66633 85.7605 9.705C87.4278 10.7163 88.6988 12.0693 89.5735 13.764C90.4755 15.4313 90.9265 17.2353 90.9265 19.176C90.9265 19.504 90.9128 19.8457 90.8855 20.201C90.8582 20.529 90.8309 20.8023 90.8035 21.021H74.1985C74.3078 22.1143 74.6222 23.071 75.1415 23.891C75.6882 24.711 76.3715 25.3397 77.1915 25.777C78.0388 26.187 78.9408 26.392 79.8975 26.392C80.9908 26.392 82.0158 26.1323 82.9725 25.613C83.9565 25.0663 84.6262 24.3557 84.9815 23.481L89.6965 24.793C89.1772 25.8863 88.4255 26.8567 87.4415 27.704C86.4849 28.5513 85.3505 29.221 84.0385 29.713C82.7265 30.1777 81.2778 30.41 79.6925 30.41ZM74.0755 17.536H85.3095C85.2002 16.4427 84.8858 15.4997 84.3665 14.707C83.8745 13.887 83.2185 13.2583 82.3985 12.821C81.5785 12.3563 80.6628 12.124 79.6515 12.124C78.6675 12.124 77.7655 12.3563 76.9455 12.821C76.1528 13.2583 75.4968 13.887 74.9775 14.707C74.4855 15.4997 74.1848 16.4427 74.0755 17.536ZM94.2325 0.0699992H99.7265V23.112C99.7265 24.096 99.8905 24.7657 100.218 25.121C100.546 25.449 100.997 25.613 101.571 25.613C102.009 25.613 102.46 25.5583 102.924 25.449C103.389 25.3397 103.799 25.203 104.154 25.039L104.892 29.221C104.154 29.5763 103.293 29.8497 102.309 30.041C101.325 30.2323 100.437 30.328 99.6445 30.328C97.9225 30.328 96.5831 29.877 95.6265 28.975C94.6971 28.0457 94.2325 26.7337 94.2325 25.039V0.0699992Z" fill="white"/>
<path d="M107.819 30V0.889998H113.477V30H107.819ZM138.985 30H133.491V17.946C133.491 16.224 133.19 14.9667 132.589 14.174C131.987 13.3813 131.154 12.985 130.088 12.985C129.35 12.985 128.598 13.1763 127.833 13.559C127.095 13.9417 126.425 14.4747 125.824 15.158C125.222 15.814 124.785 16.5793 124.512 17.454V30H119.018V8.516H123.979V12.493C124.525 11.5637 125.222 10.7847 126.07 10.156C126.917 9.5 127.887 9.008 128.981 8.68C130.101 8.32466 131.277 8.147 132.507 8.147C133.846 8.147 134.939 8.393 135.787 8.885C136.661 9.34967 137.317 9.992 137.755 10.812C138.219 11.6047 138.534 12.5067 138.698 13.518C138.889 14.5293 138.985 15.5543 138.985 16.593V30Z" fill="#DCDCDC"/>
</svg>
