<svg width="567" height="20" viewBox="0 0 567 20" fill="none" xmlns="http://www.w3.org/2000/svg">
<path d="M278.723 11.0602C278.723 12.49 278.434 13.751 277.855 14.8434C277.293 15.9197 276.482 16.747 275.422 17.3253C274.378 17.9036 273.149 18.1928 271.735 18.1928C269.566 18.1928 267.871 17.5582 266.651 16.2892C265.43 15.0201 264.819 13.2771 264.819 11.0602C264.819 8.85944 265.43 7.14056 266.651 5.90361C267.871 4.6506 269.574 4.0241 271.759 4.0241C273.944 4.0241 275.647 4.6506 276.867 5.90361C278.104 7.15663 278.723 8.8755 278.723 11.0602ZM275.783 11.0602C275.783 9.58233 275.43 8.41767 274.723 7.56627C274.016 6.71486 273.028 6.28916 271.759 6.28916C270.474 6.28916 269.478 6.71486 268.771 7.56627C268.064 8.40161 267.711 9.56627 267.711 11.0602C267.711 12.5703 268.072 13.759 268.795 14.6265C269.518 15.494 270.498 15.9277 271.735 15.9277C273.02 15.9277 274.016 15.51 274.723 14.6747C275.43 13.8233 275.783 12.6185 275.783 11.0602ZM281.344 18V9.90361C281.344 9.3253 281.336 8.84337 281.32 8.45783C281.304 8.07229 281.288 7.72691 281.272 7.42169H283.875C283.891 7.53414 283.915 7.89558 283.947 8.50602C283.995 9.1004 284.019 9.49398 284.019 9.68675H284.043C284.316 8.94779 284.557 8.4257 284.766 8.12048C284.975 7.81526 285.216 7.59036 285.489 7.44578C285.778 7.3012 286.14 7.22891 286.573 7.22891C286.927 7.22891 287.208 7.27711 287.417 7.37349V9.66265C286.967 9.56626 286.581 9.51807 286.26 9.51807C285.569 9.51807 285.031 9.7992 284.646 10.3614C284.276 10.9076 284.091 11.7269 284.091 12.8193V18H281.344Z" fill="black"/>
<line y1="12.5" x2="257" y2="12.5" stroke="black"/>
<line x1="294" y1="12.5" x2="567" y2="12.5" stroke="black"/>
</svg>
